<svg height="512pt" viewBox="0 0 512 512" width="512pt" xmlns="http://www.w3.org/2000/svg"><path d="m256 65.832031c-8.824219 0-15.980469-7.15625-15.980469-15.980469v-33.871093c0-8.824219 7.15625-15.980469 15.980469-15.980469s15.980469 7.15625 15.980469 15.980469v33.871093c0 8.824219-7.15625 15.980469-15.980469 15.980469zm0 0" fill="#26e4ff"/><path d="m256 512c-8.824219 0-15.980469-7.15625-15.980469-15.980469v-33.871093c0-8.824219 7.15625-15.980469 15.980469-15.980469s15.980469 7.15625 15.980469 15.980469v33.871093c0 8.824219-7.15625 15.980469-15.980469 15.980469zm0 0" fill="#5c32cf"/><path d="m160.914062 91.308594c-7.640624 4.414062-17.414062 1.792968-21.828124-5.847656l-16.933594-29.332032c-4.414063-7.644531-1.796875-17.417968 5.847656-21.828125 7.644531-4.414062 17.417969-1.796875 21.828125 5.847657l16.9375 29.332031c4.414063 7.640625 1.792969 17.414062-5.851563 21.828125zm0 0" fill="#50f3ff"/><path d="m384 477.703125c-7.644531 4.410156-17.417969 1.792969-21.832031-5.851563l-16.933594-29.328124c-4.414063-7.644532-1.792969-17.417969 5.851563-21.832032 7.640624-4.414062 17.414062-1.792968 21.828124 5.847656l16.933594 29.332032c4.414063 7.644531 1.796875 17.417968-5.847656 21.832031zm0 0" fill="#0b6fff"/><path d="m91.308594 160.914062c-4.414063 7.644532-14.1875 10.265626-21.832032 5.851563l-29.328124-16.9375c-7.644532-4.410156-10.261719-14.183594-5.851563-21.828125 4.414063-7.644531 14.1875-10.261719 21.832031-5.847656l29.332032 16.933594c7.640624 4.410156 10.261718 14.1875 5.847656 21.828124zm0 0" fill="#88fcff"/><path d="m477.703125 384c-4.414063 7.644531-14.1875 10.261719-21.832031 5.847656l-29.332032-16.933594c-7.644531-4.410156-10.261718-14.1875-5.847656-21.828124 4.414063-7.644532 14.1875-10.265626 21.828125-5.851563l29.332031 16.9375c7.644532 4.410156 10.265626 14.183594 5.851563 21.828125zm0 0" fill="#089bff"/><path d="m65.832031 256c0 8.824219-7.15625 15.980469-15.980469 15.980469h-33.871093c-8.824219 0-15.980469-7.15625-15.980469-15.980469s7.15625-15.980469 15.980469-15.980469h33.871093c8.824219 0 15.980469 7.15625 15.980469 15.980469zm0 0" fill="#bff"/><path d="m512 256c0 8.824219-7.15625 15.980469-15.980469 15.980469h-33.871093c-8.824219 0-15.980469-7.15625-15.980469-15.980469s7.15625-15.980469 15.980469-15.980469h33.871093c8.824219 0 15.980469 7.15625 15.980469 15.980469zm0 0" fill="#06b9ff"/><path d="m91.308594 351.085938c4.414062 7.640624 1.792968 17.414062-5.847656 21.828124l-29.332032 16.933594c-7.644531 4.414063-17.417968 1.796875-21.828125-5.847656-4.414062-7.644531-1.796875-17.417969 5.847657-21.828125l29.332031-16.9375c7.640625-4.414063 17.414062-1.792969 21.828125 5.851563zm0 0" fill="#ab8eff"/><path d="m477.703125 128c4.414063 7.644531 1.792969 17.417969-5.847656 21.832031l-29.332031 16.933594c-7.644532 4.414063-17.417969 1.792969-21.832032-5.851563-4.410156-7.640624-1.792968-17.414062 5.851563-21.828124l29.328125-16.933594c7.644531-4.414063 17.417968-1.796875 21.832031 5.847656zm0 0" fill="#22d0ff"/><path d="m160.914062 420.691406c7.644532 4.414063 10.265626 14.1875 5.851563 21.832032l-16.9375 29.328124c-4.410156 7.644532-14.183594 10.261719-21.828125 5.851563-7.644531-4.414063-10.261719-14.1875-5.847656-21.832031l16.933594-29.332032c4.410156-7.640624 14.1875-10.261718 21.828124-5.847656zm0 0" fill="#7a48ff"/><path d="m384 34.296875c7.644531 4.414063 10.261719 14.1875 5.847656 21.832031l-16.933594 29.332032c-4.410156 7.644531-14.1875 10.261718-21.828124 5.847656-7.644532-4.414063-10.265626-14.1875-5.851563-21.828125l16.9375-29.332031c4.410156-7.644532 14.183594-10.265626 21.828125-5.851563zm0 0" fill="#22d0ff"/><path d="m336.40625 256c0 44.410156-35.996094 80.40625-80.40625 80.40625-15.164062 0-29.351562-4.191406-41.453125-11.496094-23.34375-14.0625-38.953125-39.664062-38.953125-68.910156 0-44.410156 35.996094-80.40625 80.40625-80.40625 22.5625 0 42.949219 9.28125 57.546875 24.25 14.144531 14.484375 22.859375 34.296875 22.859375 56.15625zm0 0" fill="#26e4ff"/><path d="m336.40625 256c0 44.410156-35.996094 80.40625-80.40625 80.40625-15.164062 0-29.351562-4.191406-41.453125-11.496094 92.40625-22.777344 102.957031-84.558594 99-125.066406 14.144531 14.484375 22.859375 34.296875 22.859375 56.15625zm0 0" fill="#22d0ff"/><path d="m336.40625 256h-80.40625v-80.40625c22.5625 0 42.949219 9.28125 57.546875 24.25v.011719c14.152344 14.484375 22.859375 34.292969 22.859375 56.144531zm0 0" fill="#e8e6ed"/><path d="m306.550781 256c7.808594-19.53125 8.613281-39.609375 6.996094-56.144531 14.152344 14.484375 22.859375 34.292969 22.859375 56.144531zm0 0" fill="#d1d0d8"/></svg>